<?xml version="1.0" encoding="utf-8"?>
<svg xmlns="http://www.w3.org/2000/svg" viewBox="0 0 500 500" xmlnsBx="https://boxy-svg.com" width="200px" height="200px"><defs><bxExport><bxFile format="svg" width="200" height="200" normalization="{&quot;removeBoxySVGMetadata&quot;:true,&quot;resetTransformOrigins&quot;:true,&quot;convertTextsToPaths&quot;:true}"/></bxExport></defs><g transform="matrix(2.183933, 0, 0, 2.23585, -8.179925, -141.027405)" style=""><title>Pectoralis Major</title><path style="fill: rgb(216, 216, 216); stroke: rgb(0, 0, 0);" d="M 112.866 116.908 L 101.505 116.908 L 91.734 130.374 L 112.866 130.458 L 112.866 116.908 Z"/><path style="fill: rgb(216, 216, 216); stroke: rgb(0, 0, 0); stroke-width: 1;" d="M 135.39 130.444 L 124.029 130.444 L 114.258 116.978 L 135.39 116.894 L 135.39 130.444 Z" transform="matrix(-1, 0, 0, -1, 249.648011, 247.337994)"/></g><g transform="matrix(2.183933, 0, 0, 2.23585, -8.179925, -141.238739)" style=""><title>Pectoralis Minor</title><path style="fill: rgb(216, 216, 216); stroke: rgb(0, 0, 0); stroke-width: 1;" d="M 112.665 137.921 L 101.844 137.921 L 92.538 132 L 112.665 131.963 L 112.665 137.921 Z"/><path style="fill: rgb(216, 216, 216); stroke: rgb(0, 0, 0); stroke-width: 1;" d="M 134.586 131.949 L 123.765 131.949 L 114.459 137.87 L 134.586 137.907 L 134.586 131.949 Z" transform="matrix(-1, 0, 0, -1, 249.044994, 269.856007)"/></g><g transform="matrix(2.183933, 0, 0, 2.23585, -8.677394, -141.238739)" style=""><title>Front Deltoid</title><path d="M -88.226 -130.91 L -88.226 -116.631 L -99.89 -116.631 L -88.226 -130.91 Z" shape="triangle -99.89 -130.91 11.664 14.279 1 0 1@cb5ed5b8" style="fill: rgb(216, 216, 216); stroke: rgb(0, 0, 0);" transform="matrix(-1, 0, 0, -1, 0, 0)"/><path d="M 138.901 -130.91 L 138.901 -116.631 L 127.237 -116.631 L 138.901 -130.91 Z" shape="triangle 127.237 -130.91 11.664 14.279 1 0 1@a895095b" style="fill: rgb(216, 216, 216); stroke: rgb(0, 0, 0); stroke-width: 1;" transform="matrix(1, 0, 0, -1, 0, 0)"/></g><g style="" transform="matrix(2.183933, 0, 0, 2.23585, -7.304799, -141.238739)"><title>Side Deltoid</title><path style="fill: rgb(216, 216, 216); stroke: rgb(0, 0, 0); stroke-width: 1;" d="M 139.727 116.801 L 144.431 116.812 L 146.854 130.995 L 140.333 131.017 L 139.727 116.801 Z"/><path style="fill: rgb(216, 216, 216); stroke: rgb(0, 0, 0); stroke-width: 1;" d="M 77.729 130.759 L 82.433 130.748 L 84.856 116.565 L 78.335 116.543 L 77.729 130.759 Z" transform="matrix(-1, 0, 0, -1, 163.871997, 247.560001)"/></g><g style="" transform="matrix(2.183933, 0, 0, 2.23585, -7.304799, -141.238739)"><title>Biceps</title><path style="fill: rgb(216, 216, 216); stroke: rgb(0, 0, 0);" d="M 81.249 132.856 C 81.249 132.856 72.68 156.101 72.68 156.252 C 72.68 156.403 78.974 157.789 78.974 157.789 L 84.344 146.471 L 86.834 134.517 L 81.249 132.856 Z"/><path style="fill: rgb(216, 216, 216); stroke: rgb(0, 0, 0);" d="M 79.18 132.856 L 71.142 155.23 L 71.795 141.111 L 79.18 132.856 Z"/><path style="fill: rgb(216, 216, 216); stroke: rgb(0, 0, 0); stroke-width: 1;" d="M 148.367 157.789 C 148.367 157.789 139.798 134.544 139.798 134.393 C 139.798 134.242 146.092 132.856 146.092 132.856 L 151.462 144.174 L 153.952 156.128 L 148.367 157.789 Z" transform="matrix(-1, 0, 0, -1, 293.750002, 290.645)"/><path style="fill: rgb(216, 216, 216); stroke: rgb(0, 0, 0); stroke-width: 1;" d="M 155.49 155.23 L 147.452 132.856 L 148.105 146.975 L 155.49 155.23 Z" transform="matrix(-1, 0, 0, -1, 302.941997, 288.085998)"/></g><g style="" transform="matrix(2.183933, 0, 0, 2.23585, -7.304799, -141.238739)"><title>Forearms</title><path style="fill: rgb(216, 216, 216); stroke: rgb(0, 0, 0);" d="M 70.916 158.144 L 68.961 170.31 L 72.355 181.862 L 73.523 170.796 L 70.916 158.144 Z"/><path style="fill: rgb(216, 216, 216); stroke: rgb(0, 0, 0);" d="M 79.171 170.067 L 77.215 159.604 L 72.436 158.144 C 72.436 158.144 75.26 170.553 75.043 170.553 C 74.826 170.553 73.74 181.259 73.74 181.259 L 78.084 180.771 L 79.171 170.067 Z"/><path style="fill: rgb(216, 216, 216); stroke: rgb(0, 0, 0); stroke-width: 1;" d="M 155.316 181.862 L 153.361 169.696 L 156.755 158.144 L 157.923 169.21 L 155.316 181.862 Z" transform="matrix(-1, 0, 0, -1, 311.283989, 340.005997)"/><path style="fill: rgb(216, 216, 216); stroke: rgb(0, 0, 0); stroke-width: 1;" d="M 154.448 169.336 L 152.492 179.799 L 147.713 181.259 C 147.713 181.259 150.537 168.85 150.32 168.85 C 150.103 168.85 149.017 158.144 149.017 158.144 L 153.361 158.632 L 154.448 169.336 Z" transform="matrix(-1, 0, 0, -1, 302.161003, 339.402995)"/></g><g transform="matrix(2.502026, 0, 0, 2.23585, -43.260109, -140.67215)" style=""><title>Hands</title><path style="fill: rgb(216, 216, 216); stroke: rgb(0, 0, 0);" d="M 82.13 181.994 L 76.927 182.846 L 75.886 186.763 L 77.224 190.17 L 82.725 189.999 L 84.806 186.933 L 82.13 181.994 Z"/><path style="fill: rgb(216, 216, 216); stroke: rgb(0, 0, 0); stroke-width: 1;" d="M 148.437 190.681 L 143.234 189.829 L 142.193 185.912 L 143.531 182.505 L 149.032 182.676 L 151.113 185.742 L 148.437 190.681 Z" transform="matrix(-1, 0, 0, -1, 293.305989, 373.186009)"/></g><g style="" transform="matrix(2.183933, 0, 0, 2.23585, -7.304799, -141.238739)"><title>Obliques</title><path style="fill: rgb(216, 216, 216); stroke: rgb(0, 0, 0); stroke-width: 1;" d="M 123.284 171.93 L 130.25 168.05 L 132.501 153.874 L 133.814 132.966 L 127.571 135.261 L 127.33 151.777 L 123.284 171.93 Z" transform="matrix(-1, 0, 0, -1, 257.192993, 306.695007)"/><path style="fill: rgb(216, 216, 216); stroke: rgb(0, 0, 0); stroke-width: 1;" d="M 92.866 134.835 L 99.192 138.507 L 101.502 151.111 L 102.923 173.704 L 97.153 171.504 L 97.406 155.153 L 92.866 134.835 Z"/></g><g style="" transform="matrix(2.183933, 0, 0, 2.23585, -7.304799, -141.238739)"><title>Abdominals</title><g style="" transform="matrix(1.128542, 0, 0, 0.820699, -14.888335, 24.378803)"><title>UpperAbs</title><path style="fill: rgb(216, 216, 216); stroke: rgb(0, 0, 0);" d="M 102.249 139.587 L 112.553 139.906 L 112.451 150.291 L 104.393 150.132 L 102.249 139.587 Z"/><path style="fill: rgb(216, 216, 216); stroke: rgb(0, 0, 0); stroke-width: 1;" d="M 114.135 150.291 C 113.111 150.291 122.331 149.972 124.439 149.972 L 124.337 139.587 L 116.277 139.746 L 114.135 150.291 Z" transform="matrix(-1, 0, 0, -1, 238.494917, 289.878006)"/><path style="fill: rgb(216, 216, 216); stroke: rgb(0, 0, 0); stroke-width: 1;" d="M 104.128 151.736 L 112.553 151.797 L 112.461 161.133 L 105.165 160.99 L 104.128 151.736 Z"/><path style="fill: rgb(216, 216, 216); stroke: rgb(0, 0, 0); stroke-width: 1;" d="M 114.252 161.133 L 122.375 161.072 L 122.283 151.736 L 114.984 151.879 L 114.252 161.133 Z" transform="matrix(-1, 0, 0, -1, 236.627002, 312.868989)"/></g><g transform="matrix(1.128542, 0, 0, 1, -15.424834, -0.292779)" style=""><title>LowerAbs</title><path style="fill: rgb(216, 216, 216); stroke: rgb(0, 0, 0);" d="M 105.915 166.629 L 112.926 166.749 L 113.024 178.694 L 105.915 173.641 L 105.915 166.629 Z"/><path style="fill: rgb(216, 216, 216); stroke: rgb(0, 0, 0); stroke-width: 1;" d="M 114.953 177.811 L 121.964 177.691 L 122.062 165.872 L 114.953 170.799 L 114.953 177.811 Z" transform="matrix(-1, 0, 0, -1, 236.916992, 344.568992)"/><path style="fill: rgb(216, 216, 216); stroke: rgb(0, 0, 0); stroke-width: 1;" d="M 105.354 158.553 L 112.978 158.703 L 112.939 165.59 L 106.155 165.484 L 105.354 158.553 Z"/><path style="fill: rgb(216, 216, 216); stroke: rgb(0, 0, 0); stroke-width: 1;" d="M 116.08 165.53 L 123.598 165.38 L 123.514 158.493 L 116.727 158.598 L 116.08 165.53 Z" transform="matrix(-1, 0, 0, -1, 238.456009, 324.082001)"/></g></g><g style="" transform="matrix(2.183933, 0, 0, 2.23585, -7.304799, -141.238739)"><title>Adductors</title><path style="fill: rgb(216, 216, 216); stroke: rgb(0, 0, 0);" d="M 97.75 173.472 L 95.387 176.778 L 94.844 183.434 L 102.119 174.996 L 97.75 173.472 Z" id="object-0"/><path style="fill: rgb(216, 216, 216); stroke: rgb(0, 0, 0); stroke-width: 1;" d="M 127.219 183.682 C 127.219 183.666 124.856 180.052 124.856 180.376 L 124.313 173.72 L 131.588 182.158 L 127.219 183.682 Z" transform="matrix(-1, 0, 0, -1, 255.901005, 357.402016)"/></g><g style="" transform="matrix(2.183933, 0, 0, 2.23585, -7.304799, -141.238739)"><title>Abductors</title><path style="fill: rgb(216, 216, 216); stroke: rgb(0, 0, 0);" d="M 103.89 175.668 L 110.869 179.241 L 108.665 188.243 L 103.89 175.668 Z"/><path style="fill: rgb(216, 216, 216); stroke: rgb(0, 0, 0); stroke-width: 1;" d="M 115.042 188.393 L 122.424 184.427 L 120.22 175.818 L 115.042 188.393 Z" transform="matrix(-1, 0, 0, -1, 237.466005, 364.210997)"/></g><g style="" transform="matrix(2.183933, 0, 0, 2.579488, -7.304799, -201.847427)"><title>Quadrecips</title><path style="fill: rgb(216, 216, 216); stroke: rgb(0, 0, 0);" d="M 102.468 176.373 L 94.889 184.709 L 98.265 207.714 L 105.115 207.096 L 108.72 190.583 L 102.468 176.373 Z"/><path style="fill: rgb(216, 216, 216); stroke: rgb(0, 0, 0); stroke-width: 1;" d="M 124.946 207.714 L 117.367 199.378 L 120.743 176.373 L 128.19 177.588 L 131.198 193.504 L 124.946 207.714 Z" transform="matrix(-1, 0, 0, -1, 248.564993, 384.087001)"/><path style="fill: rgb(216, 216, 216); stroke: rgb(0, 0, 0);" d="M 93.626 185.854 C 93.626 185.854 93.328 205.556 93.328 205.855 C 93.328 206.154 96.91 207.347 96.91 207.347 L 93.626 185.854 Z"/><path style="fill: rgb(216, 216, 216); stroke: rgb(0, 0, 0); stroke-width: 1;" d="M 129.662 207.621 C 129.662 207.621 129.364 187.919 129.364 187.62 C 129.364 187.321 132.946 186.128 132.946 186.128 L 129.662 207.621 Z" transform="matrix(-1, 0, 0, -1, 262.309989, 393.74901)"/></g><g style="" transform="matrix(2.275439, 0, 0, 1.260637, -18.101847, 72.726143)"><title>Knee</title><path style="fill: rgb(216, 216, 216); stroke: rgb(0, 0, 0);" d="M 96.424 208.736 C 96.424 208.736 101.756 208.736 101.683 208.585 C 101.611 208.435 103.341 213.121 103.341 213.121 L 101.107 216.751 L 95.848 216.903 L 94.262 212.668 L 96.424 208.736 Z"/><path style="fill: rgb(216, 216, 216); stroke: rgb(0, 0, 0); stroke-width: 1;" d="M 125.572 216.888 C 125.572 216.888 130.904 216.888 130.831 217.039 C 130.759 217.189 132.489 212.503 132.489 212.503 L 130.255 208.873 L 124.996 208.721 L 123.41 212.956 L 125.572 216.888 Z" transform="matrix(-1, 0, 0, -1, 255.899, 425.763518)"/></g><g style="" transform="matrix(2.502026, 0, 0, 2.23585, -43.260109, -140.67215)"><title>Calves</title><path style="fill: rgb(216, 216, 216); stroke: rgb(0, 0, 0);" d="M 98.718 218.773 L 98.717 251.276 L 102.586 250.908 L 103.495 234.311 L 101.732 218.636 L 98.718 218.773 Z"/><path style="fill: rgb(216, 216, 216); stroke: rgb(0, 0, 0); stroke-width: 1;" d="M 97.421 218.936 L 97.42 251.38 L 95.2 249.548 L 94.547 234.643 L 95.863 219.304 L 97.421 218.936 Z"/><path style="fill: rgb(216, 216, 216); stroke: rgb(0, 0, 0); stroke-width: 1;" d="M 122.843 250.365 C 122.843 250.365 122.842 216.733 122.842 218.247 L 126.366 218.359 L 127.619 234.828 L 125.856 250.502 L 122.843 250.365 Z" transform="matrix(-1, 0, 0, -1, 250.460995, 469.244995)"/><path style="fill: rgb(216, 216, 216); stroke: rgb(0, 0, 0); stroke-width: 1;" d="M 128.815 219.056 L 129.13 250.984 L 131.692 249.648 L 131.791 234.739 L 130.375 219.411 L 128.815 219.056 Z"/></g><g transform="matrix(2.502026, 0, 0, 2.23585, -43.833076, -128.217896)" style=""><title>Feet</title><path style="fill: rgb(216, 216, 216); stroke: rgb(0, 0, 0); stroke-width: 1;" d="M 135.478 257.508 L 129.832 257.342 L 125.65 255.977 L 123.585 251.04 L 129.061 249.045 L 135.902 248.68 L 140.248 250.978 L 139.432 255.455 L 135.478 257.508 Z" transform="matrix(-1, 0, 0, -1, 263.832999, 506.18799)"/><path style="fill: rgb(216, 216, 216); stroke: rgb(0, 0, 0); stroke-width: 1;" d="M 99.292 248.68 L 93.646 248.846 L 89.464 250.211 L 87.399 255.148 L 92.875 257.143 L 99.716 257.508 L 104.062 255.21 L 103.246 250.733 L 99.292 248.68 Z"/></g><g style="" transform="matrix(2.183933, 0, 0, 2.23585, -7.304799, -141.238739)"><title>Trap</title><path d="M -104.425 107.666 L -104.425 115.274 L -110.79 115.274 L -104.425 107.666 Z" shape="triangle -110.79 107.666 6.365 7.608 1 0 1@ffd64bb3" style="fill: rgb(216, 216, 216); stroke: rgb(0, 0, 0); stroke-width: 1;" transform="matrix(-1, 0, 0, 1, 0, 0)"/><path d="M 103.271 109.233 L 103.271 115.326 L 95.612 115.326 L 103.271 109.233 Z" shape="triangle 95.612 109.233 7.659 6.093 1 0 1@d879ba04" style="fill: rgb(216, 216, 216); stroke: rgb(0, 0, 0);"/><path d="M 121.368 107.666 L 121.368 115.274 L 115.003 115.274 L 121.368 107.666 Z" shape="triangle 115.003 107.666 6.365 7.608 1 0 1@9e06ab87" style="fill: rgb(216, 216, 216); stroke: rgb(0, 0, 0); stroke-width: 1;"/><path d="M -122.521 109.233 L -122.521 115.326 L -130.18 115.326 L -122.521 109.233 Z" shape="triangle -130.18 109.233 7.659 6.093 1 0 1@befb881e" style="fill: rgb(216, 216, 216); stroke: rgb(0, 0, 0); stroke-width: 1;" transform="matrix(-1, 0, 0, 1, 0, 0)"/></g><path style="fill: rgb(216, 216, 216); stroke: rgb(0, 0, 0);" d="M 235.718 110.592 L 244.083 110.592 L 258.907 92.689 L 260.428 64.667 L 253.965 52.993 L 247.503 48.324 L 231.536 47.935 L 221.653 52.993 L 215.951 65.448 L 220.512 93.079 L 235.718 110.592 Z"><title>Head</title></path></svg>