<?xml version="1.0" encoding="utf-8"?>
<svg xmlns="http://www.w3.org/2000/svg" viewBox="0 0 500 500" xmlnsBx="https://boxy-svg.com" width="500px" height="500px"><defs><bx:export><bx:file format="svg" normalization="{&quot;removeBoxySVGMetadata&quot;:true,&quot;resetTransformOrigins&quot;:true,&quot;convertTextsToPaths&quot;:true}"/></bx:export></defs><g style="" transform="matrix(-2.183933, 0, 0, 2.23585, 491.46228, -130.674728)"><title>Forearms</title><path style="fill: rgb(216, 216, 216); stroke: rgb(0, 0, 0); stroke-width: 1;" d="M 76.332 158.133 L 74.377 170.299 L 77.771 181.851 L 78.939 170.785 L 76.332 158.133 Z"/><path style="fill: rgb(216, 216, 216); stroke: rgb(0, 0, 0); stroke-width: 1;" d="M 84.586 170.056 L 82.63 159.593 L 77.851 158.133 C 77.851 158.133 80.675 170.542 80.458 170.542 C 80.241 170.542 79.155 181.248 79.155 181.248 L 83.499 180.76 L 84.586 170.056 Z"/><path style="fill: rgb(216, 216, 216); stroke: rgb(0, 0, 0); stroke-width: 1;" d="M 151.464 181.627 L 149.509 169.461 L 152.903 157.909 L 154.071 168.975 L 151.464 181.627 Z" transform="matrix(-1, 0, 0, -1, 303.579996, 339.535989)"/><path style="fill: rgb(216, 216, 216); stroke: rgb(0, 0, 0); stroke-width: 1;" d="M 150.597 169.101 L 148.641 179.564 L 143.862 181.024 C 143.862 181.024 146.686 168.615 146.469 168.615 C 146.252 168.615 145.166 157.909 145.166 157.909 L 149.51 158.397 L 150.597 169.101 Z" transform="matrix(-1, 0, 0, -1, 294.459001, 338.933012)"/></g><g transform="matrix(-2.502026, 0, 0, 2.23585, 527.418335, -129.442245)" style=""><title>Hands</title><path style="fill: rgb(216, 216, 216); stroke: rgb(0, 0, 0); stroke-width: 1;" d="M 86.28 182.505 L 81.077 183.357 L 80.036 187.274 L 81.374 190.681 L 86.875 190.51 L 88.956 187.444 L 86.28 182.505 Z"/><path style="fill: rgb(216, 216, 216); stroke: rgb(0, 0, 0); stroke-width: 1;" d="M 145.272 190.681 L 140.069 189.829 L 139.028 185.912 L 140.366 182.505 L 145.867 182.676 L 147.948 185.742 L 145.272 190.681 Z" transform="matrix(-1, 0, 0, -1, 286.975997, 373.186018)"/></g><path style="fill: rgb(216, 216, 216); stroke: rgb(0, 0, 0); stroke-width: 1;" d="M 243.496 60.082 L 251.861 60.082 L 266.685 77.985 L 268.206 106.007 L 261.743 117.681 L 255.281 122.35 L 239.314 122.739 L 229.431 117.681 L 223.729 105.226 L 228.29 77.595 L 243.496 60.082 Z" transform="matrix(-1, 0, 0, -1, 491.934966, 182.820984)"><title>Head</title></path><g id="group-0" style="" transform="matrix(1, 0, 0, 0.915587, 0, 9.057967)"><title>Traps</title><path id="triangle-0" d="M 243.352 107.306 L 243.352 128.264 L 214.011 128.264 L 243.352 107.306 Z" bx:shape="triangle 214.011 107.306 29.341 20.958 1 0 1@dfe37eb0" style="fill: rgb(216, 216, 216); stroke: rgb(0, 0, 0);"/><path id="triangle-1" d="M -245.319 107.306 L -245.319 128.264 L -274.66 128.264 L -245.319 107.306 Z" bx:shape="triangle -274.66 107.306 29.341 20.958 1 0 1@a369a4a2" style="fill: rgb(216, 216, 216); stroke: rgb(0, 0, 0); stroke-width: 1;" transform="matrix(-1, 0, 0, 1, 0, 0)"/><path id="triangle-2" d="M 243.25 -246.38 L 243.25 -130.259 L 213.116 -130.259 L 243.25 -246.38 Z" bx:shape="triangle 213.116 -246.38 30.134 116.121 1 0 1@cb309288" style="fill: rgb(216, 216, 216); stroke: rgb(0, 0, 0);" transform="matrix(1, 0, 0, -1, 0, 0)"/><path id="triangle-3" d="M -245.698 -246.37 L -245.698 -130.249 L -275.49 -130.249 L -245.698 -246.37 Z" bx:shape="triangle -275.49 -246.37 29.792 116.121 1 0 1@72663870" style="fill: rgb(216, 216, 216); stroke: rgb(0, 0, 0); stroke-width: 1;" transform="matrix(-1, 0, 0, -1, 0, 0)"/></g><g id="group-1" style="" transform="matrix(1, 0, 0, 1.001263, 0, -9.429226)"><title>LowerBack</title><path id="path-0" style="fill: rgb(216, 216, 216); stroke: rgb(0, 0, 0);" d="M 243.41 248.092 L 234.553 241.165 L 225.988 258.341 L 243.067 269.613 L 243.41 248.092 Z"/><path id="path-1" style="fill: rgb(216, 216, 216); stroke: rgb(0, 0, 0); stroke-width: 1;" d="M 263.114 262.686 L 254.257 269.613 L 245.692 252.437 L 262.771 241.165 L 263.114 262.686 Z" transform="matrix(-1, 0, 0, -1, 508.806015, 510.777995)"/></g><g id="group-2" style="" transform="matrix(1, 0, 0, 0.944049, 0, 7.892395)"><title>Lats</title><path id="path-2" style="fill: rgb(216, 216, 216); stroke: rgb(0, 0, 0);" d="M 212.104 141.059 L 195.405 163.881 L 219.897 164.994 L 212.104 141.059 Z"/><path id="path-3" style="fill: rgb(216, 216, 216); stroke: rgb(0, 0, 0); stroke-width: 1;" d="M 285.297 164.994 L 268.598 142.172 L 293.09 141.059 L 285.297 164.994 Z" transform="matrix(-1, 0, 0, -1, 561.68802, 306.053016)"/><path id="path-4" style="fill: rgb(216, 216, 216); stroke: rgb(0, 0, 0);" d="M 196.007 167.106 L 219.813 168.486 L 237.031 231.279 L 224.643 255.431 L 207.392 256.121 L 205.322 206.783 L 196.007 167.106 Z"/><path id="path-5" style="fill: rgb(216, 216, 216); stroke: rgb(0, 0, 0); stroke-width: 1;" d="M 254.461 256.121 L 278.743 255.246 L 295.008 191.948 L 283.097 167.796 L 265.846 167.106 L 263.776 216.444 L 254.461 256.121 Z" transform="matrix(-1, 0, 0, -1, 547.563965, 423.226982)"/></g><g transform="matrix(-2.183933, 0, 0, 2.23585, 492.83548, -129.092316)" style=""><title>Rear Deltoid</title><path id="path-6" style="fill: rgb(216, 216, 216); stroke: rgb(0, 0, 0);" d="M 140.487 117.581 L 129.064 117.779 L 137.068 129.861 L 146.913 129.664 L 140.487 117.581 Z"/><path id="path-7" style="fill: rgb(216, 216, 216); stroke: rgb(0, 0, 0); stroke-width: 1;" d="M 91.974 129.861 L 80.551 129.663 L 88.555 117.581 L 98.4 117.778 L 91.974 129.861 Z" transform="matrix(-1, 0, 0, -1, 178.951016, 247.441998)"/></g><g id="group-3" transform="matrix(1, 0, 0, 1, -0.250525, -1.753676)"><title>Triceps</title><path id="path-8" style="fill: rgb(216, 216, 216); stroke: rgb(0, 0, 0);" d="M 167.781 165.383 L 177.441 166.517 L 170.612 187.027 L 161.72 218.068 L 157.173 217.906 L 161.481 182.958 L 167.781 165.383 Z"/><path id="path-9" style="fill: rgb(216, 216, 216); stroke: rgb(0, 0, 0);" d="M 181.256 167.161 L 187.682 166.633 L 189.197 193.803 L 180.887 222.537 L 173.224 221.587 L 178.019 205.131 L 181.3 193.872 L 183.575 177.9 L 181.256 167.161 Z"/><path id="path-10" style="fill: rgb(216, 216, 216); stroke: rgb(0, 0, 0);" d="M 181.01 172.659 L 177.961 169.824 L 171.662 192.933 L 163.272 219.423 L 170.533 220.886 L 176.914 199.639 L 180.743 186.891 L 181.01 172.659 Z"/><path id="path-11" style="fill: rgb(216, 216, 216); stroke: rgb(0, 0, 0); stroke-width: 1;" d="M 318.827 218.978 L 328.487 217.844 L 321.658 197.334 L 312.766 166.293 L 308.219 166.455 L 312.527 201.403 L 318.827 218.978 Z" transform="matrix(-1, 0, 0, -1, 636.705977, 385.270981)"/><path id="path-12" style="fill: rgb(216, 216, 216); stroke: rgb(0, 0, 0); stroke-width: 1;" d="M 304.495 222.919 L 310.921 223.447 L 312.436 196.277 L 304.126 167.543 L 296.463 168.493 L 301.258 184.949 L 304.539 196.208 L 306.814 212.18 L 304.495 222.919 Z" transform="matrix(-1, 0, 0, -1, 608.89901, 390.99002)"/><path id="path-13" style="fill: rgb(216, 216, 216); stroke: rgb(0, 0, 0); stroke-width: 1;" d="M 322.388 218.961 L 319.339 221.796 L 313.04 198.687 L 304.65 172.197 L 311.911 170.734 L 318.292 191.981 L 322.121 204.729 L 322.388 218.961 Z" transform="matrix(-1, 0, 0, -1, 627.038022, 392.529991)"/></g><g id="group-4" transform="matrix(1, 0, 0, 1, 1.050757, -7.744588)"><title>Glutes</title><path id="path-14" style="fill: rgb(216, 216, 216); stroke: rgb(0, 0, 0);" d="M 202.987 262.784 L 216.243 257.576 L 241.426 271.088 L 240.223 289.801 L 217.183 307.135 L 201.093 299.239 L 202.987 262.784 Z"/><path id="path-15" style="fill: rgb(216, 216, 216); stroke: rgb(0, 0, 0); stroke-width: 1;" d="M 248.597 301.927 L 261.853 307.135 L 287.036 293.623 L 285.833 274.91 L 262.793 257.576 L 246.703 265.472 L 248.597 301.927 Z" transform="matrix(-1, 0, 0, -1, 533.739021, 564.710995)"/></g><g id="group-5" style="" transform="matrix(1, 0, 0, 1.752575, 0.881696, -230.632767)"><title>Hamstrings</title><path id="path-16" style="fill: rgb(216, 216, 216); stroke: rgb(0, 0, 0);" d="M 205.753 302.087 L 218.518 304.64 L 230.919 298.805 L 225.082 344.394 L 208.306 344.029 L 205.753 302.087 Z"/><path id="path-17" style="fill: rgb(216, 216, 216); stroke: rgb(0, 0, 0);" d="M 206.847 343.665 L 204.293 302.452 L 199.097 300.579 L 206.847 343.665 Z"/><path id="path-18" style="fill: rgb(216, 216, 216); stroke: rgb(0, 0, 0);" d="M 237.681 295.921 L 232.575 299.18 L 231.897 307.048 L 226.359 343.138 L 234.268 314.056 L 237.681 295.921 Z"/><path id="path-19" style="fill: rgb(216, 216, 216); stroke: rgb(0, 0, 0); stroke-width: 1;" d="M 257.561 340.792 L 270.326 338.239 L 282.727 344.074 L 276.89 298.485 L 260.114 298.85 L 257.561 340.792 Z" transform="matrix(-1, 0, 0, -1, 540.287955, 642.559)"/><path id="path-20" style="fill: rgb(216, 216, 216); stroke: rgb(0, 0, 0); stroke-width: 1;" d="M 290.022 302.132 L 287.468 343.345 L 282.272 345.728 L 290.022 302.132 Z" transform="matrix(-1, 0, 0, -1, 571.654968, 645.476989)"/><path id="path-21" style="fill: rgb(216, 216, 216); stroke: rgb(0, 0, 0); stroke-width: 1;" d="M 262.121 342.818 L 257.015 339.559 L 256.337 331.691 L 250.799 295.601 L 258.708 324.683 L 262.121 342.818 Z" transform="matrix(-1, 0, 0, -1, 512.919965, 638.419)"/></g><g id="group-6"><title>Calves</title><path id="path-22" style="fill: rgb(216, 216, 216); stroke: rgb(0, 0, 0); stroke-width: 1;" d="M 206.833 373.351 L 213.086 376.436 L 216.929 376.182 L 215.942 410.446 L 209.369 411.55 L 206.411 373.234"/><path id="path-23" style="fill: rgb(216, 216, 216); stroke: rgb(0, 0, 0); stroke-width: 1;" d="M 218.192 410.302 L 223.419 407.217 L 226.629 407.471 L 227.028 395.692 L 227.792 373.208 L 222.582 374.331 L 217.839 410.418" transform="matrix(-1, 0, 0, -1, 445.631013, 783.62602)"/><path id="path-24" style="fill: rgb(216, 216, 216); stroke: rgb(0, 0, 0); stroke-width: 1;" d="M 210.165 413.084 L 216.617 412.97 L 223.325 411.326 L 220.648 434.421 C 221.655 434.421 218.656 434.567 215.898 434.691 C 213.831 434.785 211.897 434.866 211.891 434.866 L 210.165 413.084 Z"/><path id="path-27" style="fill: rgb(216, 216, 216); stroke: rgb(0, 0, 0); stroke-width: 1;" d="M 267.113 433.108 L 273.565 433.222 L 280.273 434.866 L 277.596 411.771 C 278.603 411.771 275.604 411.625 272.846 411.501 C 270.779 411.407 268.845 411.326 268.839 411.326 L 267.113 433.108 Z" transform="matrix(-1, 0, 0, -1, 547.386015, 846.191977)"/><path id="path-25" style="fill: rgb(216, 216, 216); stroke: rgb(0, 0, 0); stroke-width: 1;" d="M 273.809 411.433 L 280.062 408.348 L 283.905 408.602 L 282.918 374.338 L 276.345 373.234 L 273.387 411.55" transform="matrix(-1, 0, 0, -1, 557.292019, 784.783965)"/><path id="path-26" style="fill: rgb(216, 216, 216); stroke: rgb(0, 0, 0); stroke-width: 1;" d="M 262.878 373.324 L 268.105 376.409 L 271.315 376.155 L 271.714 387.934 L 272.478 410.418 L 267.268 409.295 L 262.525 373.208"/></g><g id="group-7"><title>Feets</title><path id="path-28" style="fill: rgb(216, 216, 216); stroke: rgb(0, 0, 0);" d="M 220.98 437.844 L 207.577 438.588 L 197.152 444.545 L 205.343 451.992 C 205.343 451.992 220.236 452.736 220.98 452.736 C 221.724 452.736 229.916 445.29 220.98 437.844 Z"/><path id="path-29" style="fill: rgb(216, 216, 216); stroke: rgb(0, 0, 0); stroke-width: 1;" d="M 288.16 452.736 L 274.757 451.992 L 264.332 446.035 L 272.523 438.588 C 272.523 438.588 287.416 437.844 288.16 437.844 C 288.904 437.844 297.096 445.29 288.16 452.736 Z" transform="matrix(-1, 0, 0, -1, 556.634085, 890.579983)"/></g></svg>